<svg
        width="64"
        height="64"
        viewBox="0 0 64 64"
        fill="none"
        xmlns="http://www.w3.org/2000/svg"
>
    <!-- 리본 왼쪽 루프 -->
    <path
            d="M32 18
       C 24 10, 18 10, 16 14
       C 14 18, 16 22, 21 22
       C 24 22, 28 20, 32 18Z"
            fill="#FF7675"
    />
    <!-- 리본 오른쪽 루프 -->
    <path
            d="M32 18
       C 40 10, 46 10, 48 14
       C 50 18, 48 22, 43 22
       C 40 22, 36 20, 32 18Z"
            fill="#FF7675"
    />
    <!-- 테두리 (살짝 진하게) -->
    <rect
            x="10"
            y="24"
            width="44"
            height="30"
            rx="4"
            stroke="#E74C3C"
            stroke-width="2"
            fill="none"
    />
    <!-- 상자 바닥 -->
    <rect
            x="10"
            y="24"
            width="44"
            height="30"
            rx="4"
            fill="#FF7675"
    />
    <!-- 상자 뚜껑 -->
    <rect
            x="8"
            y="18"
            width="48"
            height="10"
            rx="3"
            fill="#E74C3C"
    />
    <!-- 세로 리본 -->
    <rect
            x="30"
            y="18"
            width="4"
            height="36"
            fill="#FFFFFF"
            opacity="0.9"
    />
    <!-- 가로 리본 (뚜껑 위) -->
    <rect
            x="8"
            y="22"
            width="48"
            height="3"
            fill="#FFFFFF"
            opacity="0.9"
    />
</svg>
